<svg version="1.1" xmlns="http://www.w3.org/2000/svg" xmlns:xlink="http://www.w3.org/1999/xlink" x="0px" y="0px"
	 viewBox="0 0 20 20" enable-background="new 0 0 20 20" xml:space="preserve" width="18px" height="18px">
<g id="Layer_1">
	<path fill="#444444" d="M10,19.2c-5.1,0-9.2-4.1-9.2-9.2S4.9,0.8,10,0.8s9.2,4.1,9.2,9.2S15.1,19.2,10,19.2z M10,2.3
		c-4.2,0-7.7,3.5-7.7,7.7s3.5,7.7,7.7,7.7c4.2,0,7.7-3.5,7.7-7.7S14.2,2.3,10,2.3z"/>
</g>
<g id="Layer_2">
	<path fill="#444444" d="M4.5,17.3L4.5,17.3l0.2,0.2c0,0,0.1,0.1,0.1,0.1c0,0,0,0,0,0c0.4,0.2,0.7,0.5,1.1,0.6c0,0,0,0,0,0
		c0.1,0.1,0.3,0.1,0.4,0.2c0,0,0,0,0,0c0.4,0.2,0.8,0.3,1.2,0.4c0,0,0,0,0.1,0C7.9,18.9,8,19,8.1,19c0,0,0,0,0.1,0
		C8.5,19,8.7,19.1,9,19.1c0,0,0.1,0,0.1,0c0.1,0,0.2,0,0.3,0c0,0,0.1,0,0.1,0c0.1,0,0.3,0,0.4,0s0.3,0,0.4,0c0,0,0.1,0,0.1,0
		c0.1,0,0.2,0,0.3,0c0,0,0.1,0,0.1,0c0.3,0,0.6-0.1,0.9-0.1c0,0,0,0,0.1,0c0.1,0,0.3-0.1,0.4-0.1c0,0,0,0,0.1,0
		c0.4-0.1,0.8-0.3,1.2-0.4c0,0,0,0,0,0c0.1-0.1,0.3-0.1,0.4-0.2c0,0,0,0,0,0c0.4-0.2,0.8-0.4,1.1-0.6c0,0,0,0,0,0
		c0,0,0.1-0.1,0.1-0.1l0.2-0.2l0,0l-0.2-1.1c-0.5-1.9-1.9-3.4-3.7-3.9c0.9-0.5,1.5-1.5,1.5-2.6c0-1.7-1.4-3.1-3.1-3.1
		c-1.7,0-3.1,1.4-3.1,3.1c0,1.1,0.6,2.1,1.5,2.6c-1.8,0.5-3.3,2-3.7,3.9L4.5,17.3z"/>
</g>
</svg>